<?xml version="1.0" standalone="no"?>
<!DOCTYPE svg PUBLIC "-//W3C//DTD SVG 20010904//EN"
 "http://www.w3.org/TR/2001/REC-SVG-20010904/DTD/svg10.dtd">
<svg version="1.0" xmlns="http://www.w3.org/2000/svg"
 width="512.000000pt" height="512.000000pt" viewBox="0 0 512.000000 512.000000"
 preserveAspectRatio="xMidYMid meet">
<metadata>
Created by potrace 1.11, written by Peter Selinger 2001-2013
</metadata>
<g transform="translate(0.000000,512.000000) scale(0.100000,-0.100000)"
fill="#000000" stroke="none">
<path d="M1280 4865 l0 -255 93 0 c50 0 512 0 1025 0 l932 0 0 -130 0 -131
255 2 255 1 0 384 0 384 -1280 0 -1280 0 0 -255z"/>
<path d="M4359 4860 c-4 -3 -8 -150 -8 -325 0 -176 0 -404 -1 -507 l0 -188
-895 0 -895 0 0 255 0 255 -492 1 c-522 1 -520 1 -528 -11 -8 -13 -5 -3565 3
-3567 4 -2 234 -3 512 -3 l505 0 0 255 0 255 895 0 895 0 0 -167 c0 -93 1
-323 1 -513 l0 -345 385 0 384 0 0 898 0 898 -147 -1 c-82 -1 -255 -1 -385 -1
l-237 1 0 510 0 510 252 1 c139 0 312 0 385 -1 l132 -1 0 898 0 898 -376 0
c-207 0 -380 -2 -385 -5z"/>
<path d="M4 3581 c-2 -2 -4 -464 -4 -1025 l0 -1021 512 1 512 0 1 255 0 254
100 2 c55 1 112 2 128 2 l27 1 0 510 c0 401 -3 510 -12 511 -7 0 -63 0 -124
-1 -83 0 -113 3 -116 12 -3 7 -4 122 -4 255 1 134 -1 243 -4 244 -17 3 -1012
3 -1016 0z"/>
<path d="M3330 640 l0 -130 -917 0 c-505 0 -966 0 -1025 0 l-108 0 0 -255 0
-255 1280 0 1280 0 0 384 0 384 -255 1 -255 2 0 -131z"/>
</g>
</svg>
